<?xml version="1.0" encoding="UTF-8" standalone="no"?>
<!-- Created with Inkscape (http://www.inkscape.org/) -->

<svg
   width="512"
   height="512"
   viewBox="0 0 512 512"
   version="1.1"
   id="svg1"
   xml:space="preserve"
   inkscape:version="1.3.2 (1:1.3.2+202311252150+091e20ef0f)"
   sodipodi:docname="KaiGElogo.svg"
   xmlns:inkscape="http://www.inkscape.org/namespaces/inkscape"
   xmlns:sodipodi="http://sodipodi.sourceforge.net/DTD/sodipodi-0.dtd"
   xmlns="http://www.w3.org/2000/svg"
   xmlns:svg="http://www.w3.org/2000/svg"><sodipodi:namedview
     id="namedview1"
     pagecolor="#ffffff"
     bordercolor="#999999"
     borderopacity="1"
     inkscape:showpageshadow="0"
     inkscape:pageopacity="0"
     inkscape:pagecheckerboard="0"
     inkscape:deskcolor="#d1d1d1"
     inkscape:document-units="px"
     inkscape:zoom="1.057898"
     inkscape:cx="301.54135"
     inkscape:cy="221.19334"
     inkscape:window-width="1920"
     inkscape:window-height="1012"
     inkscape:window-x="0"
     inkscape:window-y="0"
     inkscape:window-maximized="1"
     inkscape:current-layer="layer1" /><defs
     id="defs1" /><g
     inkscape:label="Layer 1"
     inkscape:groupmode="layer"
     id="layer1"><rect
       style="fill:#1a1a1a;stroke:#000000;stroke-width:13.6331;stroke-linejoin:round;stroke-dasharray:none;paint-order:markers stroke fill"
       id="rect1"
       width="483.56644"
       height="483.56644"
       x="14.216777"
       y="14.216777"
       ry="107.83573" /><path
       style="fill:#000000;stroke:#ffffff;stroke-width:4.9658;stroke-dasharray:none;paint-order:markers stroke fill"
       d="m 89.89764,437.13557 c -3.412594,-1.25355 -5.129004,-3.36772 -5.129004,-6.31756 0,-2.21814 1.410249,-4.38692 3.655959,-5.62239 l 1.840611,-1.0126 14.311164,-0.17696 14.31119,-0.17695 V 304.2261 184.62309 l -14.30568,-0.17695 -14.305684,-0.17696 -1.807753,-0.94975 c -3.108741,-1.63328 -4.589605,-5.45128 -3.22543,-8.3159 0.674422,-1.41621 2.578163,-2.92417 4.654627,-3.6869 1.72626,-0.63411 7.103414,-0.65531 166.13465,-0.65531 158.01567,0 164.41959,0.025 166.13851,0.64438 2.30639,0.83131 4.55405,2.87422 4.93502,4.48549 0.80158,3.38994 -0.97571,6.59634 -4.38121,7.90434 -1.83596,0.70514 -2.64772,0.75058 -13.40943,0.75058 H 397.86002 V 304.2098 423.97348 l 11.96974,0.10462 11.96972,0.10461 1.84055,1.01258 c 2.24568,1.23549 3.65593,3.4043 3.65593,5.62241 0,2.94985 -1.71641,5.06401 -5.129,6.31756 -1.72623,0.63411 -7.10339,0.65531 -166.13467,0.65531 -159.031236,0 -164.40839,-0.0223 -166.13465,-0.65531 z m 94.32881,-132.9125 v -119.783 l -23.97246,0.0915 -23.97245,0.0915 -0.11408,119.24914 c -0.0626,65.58704 -0.0195,119.4482 0.0977,119.69149 0.16555,0.34622 5.39683,0.44229 24.08659,0.44229 h 23.87497 z m 65.45311,92.27079 0.11435,-27.3353 h 8.69423 8.69421 v 27.42375 27.42378 h 23.86097 23.86094 V 304.22616 184.44622 h -23.86094 -23.86097 v 26.89298 26.89298 h -8.69418 -8.69421 l -0.11435,-26.80451 -0.11435,-26.80453 -23.97246,-0.0915 -23.97246,-0.0915 v 119.78611 119.78609 l 23.97246,-0.0915 23.97246,-0.0915 z m -15.87672,-34.09191 c -10.09197,-1.37263 -19.37248,-7.79506 -22.38445,-15.4907 -1.61166,-4.11785 -1.86234,-7.9524 -1.65915,-25.37968 0.21618,-18.51531 0.20811,-18.46184 3.43351,-23.67481 1.92302,-3.10807 5.27073,-6.32199 8.31749,-7.98514 l 1.96411,-1.07215 v -14.06288 c 0,-11.32378 0.12966,-14.45756 0.6653,-16.08934 1.97338,-6.01101 7.93214,-10.79815 15.35446,-12.33541 4.10235,-0.84963 31.26404,-0.92867 35.67463,-0.10406 5.64264,1.05529 10.98891,4.22835 13.98706,8.30151 2.37575,3.22766 2.55643,4.60321 2.55643,19.46132 v 13.65096 l 2.84103,1.48197 c 5.57025,2.90558 9.90756,7.54146 11.73228,12.53986 1.02897,2.81858 1.03662,2.98315 1.03008,22.17311 -0.008,21.67269 -0.0278,21.83648 -3.11675,26.54714 -3.75838,5.72939 -9.70921,9.56698 -18.06164,11.64762 -1.89155,0.47117 -5.85109,0.56755 -26.09093,0.63499 -13.12353,0.0437 -24.9331,-0.0662 -26.24346,-0.24456 z m 49.24446,-12.94459 c 1.5007,-0.40491 2.98326,-1.21875 4.67351,-2.56545 4.11718,-3.28038 4.04554,-2.84668 3.89591,-23.58169 l -0.12743,-17.66864 -1.06667,-1.71914 c -1.40585,-2.26579 -3.67115,-4.01654 -6.55007,-5.06225 l -2.34193,-0.85066 -23.3416,0.10072 c -22.96255,0.0988 -23.37093,0.11296 -25.14566,0.86687 -2.49038,1.05791 -5.25078,3.53541 -6.26595,5.62381 -0.79567,1.63678 -0.84998,2.89055 -0.84998,19.6182 v 17.86969 l 1.06405,1.86816 c 1.26777,2.22573 4.6216,4.75317 7.30938,5.50828 1.57154,0.44149 5.59351,0.53406 24.21655,0.55737 19.78105,0.025 22.58308,-0.0398 24.52994,-0.56511 z m -38.61099,-9.47753 c 0,-0.0893 1.40491,-3.32684 3.12202,-7.19425 1.71707,-3.86742 3.12198,-7.13681 3.12198,-7.26529 0,-0.12854 -0.68396,-0.94455 -1.51993,-1.81346 -1.91759,-1.99316 -2.64221,-3.72715 -2.61221,-6.25101 0.10572,-8.9081 13.96738,-12.88163 21.44025,-6.14598 4.25346,3.83383 4.01168,9.48529 -0.56741,13.26297 l -1.5012,1.2385 3.53022,6.86292 c 1.94164,3.77459 3.53023,6.99908 3.53023,7.16554 0,0.16666 -6.4224,0.30266 -14.27196,0.30266 -7.84959,0 -14.27199,-0.0732 -14.27199,-0.16249 z m 31.56066,-66.29827 c 0.13076,-12.69851 0.0223,-13.26667 -2.75801,-14.61238 -1.26791,-0.61343 -2.46735,-0.66471 -15.57685,-0.66593 -15.67715,-0.001 -15.80179,0.0167 -17.51383,2.25823 -0.76897,1.00774 -0.85249,2.06795 -0.97594,12.38703 -0.074,6.20674 -0.0295,11.50307 0.0996,11.76967 0.1942,0.40148 3.356,0.46881 18.42096,0.39224 l 18.18653,-0.0924 z m 104.46907,30.54151 v -119.783 l -23.97246,0.0915 -23.97243,0.0915 -0.11435,119.24914 c -0.0626,65.58704 -0.0195,119.4482 0.0977,119.69149 0.16554,0.34622 5.39688,0.44229 24.08661,0.44229 h 23.87494 z"
       id="path1" /><text
       xml:space="preserve"
       style="font-style:normal;font-variant:normal;font-weight:normal;font-stretch:normal;font-size:111.291px;line-height:1.25;font-family:ro;-inkscape-font-specification:ro;stroke:#ffffff;stroke-width:5.56454;stroke-dasharray:none;paint-order:markers stroke fill"
       x="95.624992"
       y="158.86183"
       id="text1"><tspan
         sodipodi:role="line"
         id="tspan1"
         x="95.624992"
         y="158.86183"
         style="font-style:normal;font-variant:normal;font-weight:normal;font-stretch:normal;font-family:'Roboto Slab';-inkscape-font-specification:'Roboto Slab';stroke:#ffffff;stroke-width:5.56454;stroke-dasharray:none;paint-order:markers stroke fill">KaiGE</tspan></text></g></svg>
