<?xml version="1.0" encoding="UTF-8" standalone="no"?>
<!-- Created with Inkscape (http://www.inkscape.org/) -->

<svg
   width="512"
   height="512"
   viewBox="0 0 512 512"
   version="1.1"
   id="svg1"
   xml:space="preserve"
   inkscape:version="1.3.2 (1:1.3.2+202311252150+091e20ef0f)"
   sodipodi:docname="KaiGElogo.svg"
   xmlns:inkscape="http://www.inkscape.org/namespaces/inkscape"
   xmlns:sodipodi="http://sodipodi.sourceforge.net/DTD/sodipodi-0.dtd"
   xmlns="http://www.w3.org/2000/svg"
   xmlns:svg="http://www.w3.org/2000/svg"><sodipodi:namedview
     id="namedview1"
     pagecolor="#ffffff"
     bordercolor="#999999"
     borderopacity="1"
     inkscape:showpageshadow="0"
     inkscape:pageopacity="0"
     inkscape:pagecheckerboard="0"
     inkscape:deskcolor="#d1d1d1"
     inkscape:document-units="px"
     inkscape:zoom="2.9921875"
     inkscape:cx="236.95039"
     inkscape:cy="283.4047"
     inkscape:window-width="1920"
     inkscape:window-height="1012"
     inkscape:window-x="0"
     inkscape:window-y="0"
     inkscape:window-maximized="1"
     inkscape:current-layer="layer1" /><defs
     id="defs1" /><g
     inkscape:label="Layer 1"
     inkscape:groupmode="layer"
     id="layer1"><g
       id="g3"><rect
         style="fill:#ffffff;stroke:#000000;stroke-width:4.9;stroke-linejoin:round;stroke-dasharray:none;paint-order:markers stroke fill"
         id="rect1"
         width="173.80283"
         height="173.80283"
         x="169.09859"
         y="169.09859"
         ry="38.758179" /><g
         id="g2"
         transform="translate(-0.00626566,12.550473)"><path
           style="fill:#000000;stroke:#999999;stroke-width:1.7848;stroke-dasharray:none;paint-order:markers stroke fill"
           d="m 196.30597,308.55304 c -1.22655,-0.45055 -1.84346,-1.21042 -1.84346,-2.27065 0,-0.79724 0.50687,-1.57674 1.31402,-2.02079 l 0.66155,-0.36395 5.1437,-0.0636 5.14371,-0.0636 v -42.98756 -42.98756 l -5.14173,-0.0636 -5.14173,-0.0636 -0.64974,-0.34136 c -1.11734,-0.58703 -1.64959,-1.95929 -1.15928,-2.98889 0.2424,-0.50901 0.92664,-1.051 1.67296,-1.32514 0.62045,-0.22791 2.5531,-0.23553 59.7119,-0.23553 56.79379,0 59.09548,0.009 59.71329,0.2316 0.82896,0.29879 1.63681,1.03305 1.77374,1.61217 0.2881,1.21841 -0.35069,2.37085 -1.57469,2.84097 -0.65988,0.25344 -0.95164,0.26977 -4.8196,0.26977 h -4.1172 v 43.04531 43.04531 l 4.30215,0.0376 4.30214,0.0376 0.66153,0.36394 c 0.80714,0.44406 1.31401,1.22357 1.31401,2.0208 0,1.06023 -0.61691,1.8201 -1.84346,2.27065 -0.62044,0.22791 -2.55309,0.23553 -59.71191,0.23553 -57.1588,0 -59.09145,-0.008 -59.7119,-0.23553 z m 33.90354,-47.77124 v -43.05225 l -8.61615,0.0329 -8.61615,0.0329 -0.041,42.86037 c -0.0225,23.57321 -0.007,42.93192 0.0351,43.01936 0.0595,0.12444 1.93972,0.15897 8.65717,0.15897 h 8.58111 z m 23.52507,33.16385 0.0411,-9.82482 h 3.12487 3.12486 v 9.85661 9.85662 h 8.57608 8.57607 v -43.05115 -43.05115 h -8.57607 -8.57608 v 9.66584 9.66584 h -3.12485 -3.12486 l -0.0411,-9.63404 -0.0411,-9.63405 -8.61615,-0.0329 -8.61615,-0.0329 v 43.05337 43.05336 l 8.61615,-0.0329 8.61615,-0.0329 z m -5.70639,-12.25327 c -3.62724,-0.49335 -6.96283,-2.80169 -8.04539,-5.56765 -0.57926,-1.48003 -0.66936,-2.85824 -0.59633,-9.12193 0.0777,-6.65475 0.0748,-6.63553 1.23407,-8.50917 0.69117,-1.1171 1.8944,-2.27224 2.98946,-2.87001 l 0.70594,-0.38535 v -5.05446 c 0,-4.06998 0.0466,-5.19632 0.23912,-5.78281 0.70927,-2.16047 2.85096,-3.88106 5.51868,-4.43358 1.47446,-0.30537 11.23688,-0.33378 12.82213,-0.0374 2.02807,0.37929 3.94962,1.51975 5.02721,2.98372 0.85389,1.16008 0.91883,1.65448 0.91883,6.99476 v 4.90641 l 1.02112,0.53265 c 2.00205,1.04432 3.56096,2.71054 4.2168,4.50706 0.36983,1.01305 0.37258,1.0722 0.37023,7.96943 -0.003,7.78957 -0.01,7.84844 -1.12022,9.54154 -1.35083,2.05925 -3.48967,3.43855 -6.49169,4.18637 -0.67986,0.16935 -2.10299,0.20399 -9.37757,0.22823 -4.71684,0.0157 -8.96142,-0.0238 -9.43239,-0.0879 z m 17.69938,-4.65253 c 0.53938,-0.14553 1.07224,-0.43804 1.67975,-0.92207 1.47979,-1.17903 1.45404,-1.02315 1.40026,-8.4757 l -0.0458,-6.35044 -0.38338,-0.61789 c -0.50529,-0.81437 -1.31948,-1.44362 -2.35422,-1.81947 l -0.84173,-0.30574 -8.38941,0.0362 c -8.25317,0.0355 -8.39995,0.0406 -9.03782,0.31157 -0.89509,0.38023 -1.88723,1.27069 -2.2521,2.0213 -0.28598,0.58829 -0.3055,1.03892 -0.3055,7.05115 v 6.4227 l 0.38244,0.67145 c 0.45566,0.79997 1.66109,1.70838 2.62713,1.97978 0.56484,0.15868 2.01041,0.19195 8.70388,0.20033 7.10968,0.009 8.11678,-0.0143 8.81652,-0.20311 z m -13.87751,-3.4064 c 0,-0.0321 0.50495,-1.19573 1.12211,-2.58575 0.61715,-1.39002 1.1221,-2.5651 1.1221,-2.61128 0,-0.0462 -0.24583,-0.33949 -0.54629,-0.65179 -0.68922,-0.71638 -0.94966,-1.33961 -0.93888,-2.24673 0.038,-3.20174 5.02014,-4.6299 7.70603,-2.20898 1.52877,1.37795 1.44187,3.40919 -0.20394,4.76696 l -0.53956,0.44514 1.26883,2.46666 c 0.69786,1.35666 1.26883,2.5156 1.26883,2.57543 0,0.0599 -2.30833,0.10878 -5.12961,0.10878 -2.82129,0 -5.12962,-0.0263 -5.12962,-0.0584 z m 11.34349,-23.82884 c 0.047,-4.56408 0.008,-4.76829 -0.99128,-5.25196 -0.45571,-0.22048 -0.88681,-0.23891 -5.59861,-0.23935 -5.63466,-5.2e-4 -5.67946,0.006 -6.2948,0.81165 -0.27638,0.3622 -0.3064,0.74326 -0.35077,4.45213 -0.0266,2.23082 -0.0106,4.13442 0.0358,4.23024 0.0698,0.1443 1.20621,0.1685 6.62084,0.14098 l 6.53658,-0.0332 z m 37.54814,10.97719 v -43.05225 l -8.61615,0.0329 -8.61614,0.0329 -0.0411,42.86037 c -0.0225,23.57321 -0.007,42.93192 0.0351,43.01936 0.0595,0.12444 1.93974,0.15897 8.65718,0.15897 h 8.5811 z"
           id="path1" /><text
           xml:space="preserve"
           style="font-style:normal;font-variant:normal;font-weight:normal;font-stretch:normal;font-size:40px;line-height:1.25;font-family:ro;-inkscape-font-specification:ro;stroke:#808080;stroke-width:2;stroke-dasharray:none;paint-order:markers stroke fill"
           x="198.36449"
           y="208.53625"
           id="text1"><tspan
             sodipodi:role="line"
             id="tspan1"
             x="198.36449"
             y="208.53625"
             style="font-style:normal;font-variant:normal;font-weight:normal;font-stretch:normal;font-family:'Roboto Slab';-inkscape-font-specification:'Roboto Slab';stroke:#808080;stroke-width:2;stroke-dasharray:none;paint-order:markers stroke fill">KaiGE</tspan></text></g></g></g></svg>
