<?xml version="1.0" encoding="UTF-8" standalone="no"?>
<!-- Created with Inkscape (http://www.inkscape.org/) -->

<svg
   width="512"
   height="512"
   viewBox="0 0 512 512"
   version="1.1"
   id="svg1"
   xml:space="preserve"
   inkscape:version="1.3.2 (1:1.3.2+202311252150+091e20ef0f)"
   sodipodi:docname="KaiGElogo.svg"
   xmlns:inkscape="http://www.inkscape.org/namespaces/inkscape"
   xmlns:sodipodi="http://sodipodi.sourceforge.net/DTD/sodipodi-0.dtd"
   xmlns="http://www.w3.org/2000/svg"
   xmlns:svg="http://www.w3.org/2000/svg"><sodipodi:namedview
     id="namedview1"
     pagecolor="#ffffff"
     bordercolor="#999999"
     borderopacity="1"
     inkscape:showpageshadow="0"
     inkscape:pageopacity="0"
     inkscape:pagecheckerboard="0"
     inkscape:deskcolor="#d1d1d1"
     inkscape:document-units="px"
     inkscape:zoom="4.2315921"
     inkscape:cx="237.9719"
     inkscape:cy="295.63341"
     inkscape:window-width="1920"
     inkscape:window-height="1012"
     inkscape:window-x="0"
     inkscape:window-y="0"
     inkscape:window-maximized="1"
     inkscape:current-layer="layer1" /><defs
     id="defs1" /><g
     inkscape:label="Layer 1"
     inkscape:groupmode="layer"
     id="layer1"><g
       id="g1"
       transform="translate(0.01784772,17.270873)"><path
         style="fill:#000000;stroke:#999999;stroke-width:2;stroke-dasharray:none;paint-order:markers stroke fill"
         d="m 196.39999,316.09666 c -1.22425,-0.56681 -1.84,-1.52275 -1.84,-2.85656 0,-1.00296 0.50592,-1.9836 1.31156,-2.54224 l 0.66031,-0.45786 5.13406,-0.08 5.13407,-0.08 V 256 201.92 l -5.1321,-0.08 -5.13209,-0.08 -0.64852,-0.42944 c -1.11525,-0.73851 -1.6465,-2.46486 -1.15711,-3.76014 0.24194,-0.64036 0.9249,-1.3222 1.66982,-1.66708 0.61929,-0.28672 2.54832,-0.29631 59.6,-0.29631 56.68735,0 58.98473,0.0112 59.60138,0.29137 0.8274,0.37588 1.63374,1.29961 1.77041,2.02817 0.28756,1.5328 -0.35003,2.98262 -1.57174,3.57405 -0.65864,0.31884 -0.94985,0.33938 -4.81056,0.33938 h -4.10949 v 54.15265 54.15266 l 4.29409,0.0473 4.29408,0.0473 0.66029,0.45786 c 0.80562,0.55864 1.31154,1.53929 1.31154,2.54224 0,1.33381 -0.61575,2.28975 -1.84,2.85656 -0.61928,0.28672 -2.54831,0.29631 -59.6,0.29631 -57.05168,0 -58.98071,-0.01 -59.6,-0.29631 z m 33.84,-60.09805 v -54.16139 l -8.6,0.0414 -8.6,0.0414 -0.0409,53.92 c -0.0225,29.656 -0.007,54.01 0.035,54.12 0.0594,0.15656 1.93609,0.2 8.64095,0.2 h 8.56502 z m 23.48099,41.72139 0.041,-12.36 H 256.88099 260 v 12.4 12.4 h 8.56 8.56 V 256 201.84 H 268.56 260 V 214 226.16 h -3.119 -3.119 l -0.041,-12.12 -0.041,-12.12 -8.6,-0.0414 -8.6,-0.0414 V 256 310.16278 l 8.6,-0.0414 8.6,-0.0414 z m -5.6957,-15.41508 c -3.62044,-0.62066 -6.94978,-3.52463 -8.03031,-7.00432 -0.57818,-1.86193 -0.66811,-3.59578 -0.59521,-11.47574 0.0775,-8.37193 0.0747,-8.34775 1.23175,-10.70486 0.68988,-1.40535 1.89085,-2.85857 2.98386,-3.61058 l 0.70462,-0.48479 v -6.3587 c 0,-5.1202 0.0465,-6.53717 0.23867,-7.275 0.70794,-2.71795 2.84562,-4.88252 5.50834,-5.57761 1.47169,-0.38417 11.21582,-0.41992 12.7981,-0.047 2.02427,0.47715 3.94221,1.9119 5.01778,3.75363 0.85229,1.45942 0.91711,2.0814 0.91711,8.79968 v 6.17245 l 1.01921,0.67009 c 1.9983,1.3138 3.55429,3.40997 4.2089,5.67006 0.36913,1.27445 0.37188,1.34886 0.36953,10.02585 -0.003,9.79957 -0.01,9.87364 -1.11812,12.00362 -1.3483,2.59062 -3.48313,4.32583 -6.47952,5.26661 -0.67859,0.21306 -2.09905,0.25663 -9.36,0.28713 -4.708,0.0198 -8.94462,-0.03 -9.41471,-0.11057 z m 17.66621,-5.85306 c 0.53837,-0.18308 1.07023,-0.55107 1.6766,-1.16 1.47702,-1.48327 1.45132,-1.28717 1.39764,-10.66276 l -0.0457,-7.9891 -0.38266,-0.77733 c -0.50434,-1.0245 -1.31701,-1.81613 -2.34981,-2.28896 l -0.84015,-0.38463 -8.37369,0.0455 c -8.2377,0.0447 -8.3842,0.0511 -9.02088,0.39197 -0.89341,0.47834 -1.88369,1.59858 -2.24788,2.54287 -0.28544,0.74009 -0.30493,1.307 -0.30493,8.87062 v 8.08 l 0.38173,0.84471 c 0.4548,1.0064 1.65798,2.14921 2.6222,2.49064 0.56379,0.19963 2.00665,0.24148 8.68757,0.25202 7.09636,0.0112 8.10157,-0.018 8.8,-0.25551 z m -13.8515,-4.28538 c 0,-0.0404 0.504,-1.50428 1.12,-3.25298 0.616,-1.7487 1.12,-3.22699 1.12,-3.28509 0,-0.0581 -0.24537,-0.42709 -0.54526,-0.81998 -0.68793,-0.90123 -0.94788,-1.68528 -0.93713,-2.82647 0.0379,-4.02791 5.01074,-5.82459 7.69159,-2.77898 1.52591,1.73352 1.43917,4.28889 -0.20355,5.99702 l -0.53855,0.56 1.26645,3.10315 c 0.69655,1.70673 1.26645,3.16473 1.26645,3.24 0,0.0753 -2.304,0.13685 -5.12,0.13685 -2.816,0 -5.12,-0.0331 -5.12,-0.0735 z m 11.32223,-29.9776 c 0.0469,-5.74179 0.008,-5.99869 -0.98942,-6.60717 -0.45486,-0.27737 -0.88515,-0.30056 -5.58812,-0.30111 -5.6241,-6.6e-4 -5.66882,0.007 -6.283,1.02109 -0.27587,0.45566 -0.30583,0.93505 -0.35012,5.60095 -0.0266,2.80645 -0.0106,5.20126 0.0357,5.3218 0.0697,0.18154 1.20395,0.21198 6.60843,0.17736 l 6.52433,-0.0418 z m 37.47777,13.80973 v -54.16139 l -8.6,0.0414 -8.6,0.0414 -0.041,53.92 c -0.0225,29.656 -0.007,54.01 0.035,54.12 0.0594,0.15656 1.9361,0.2 8.64095,0.2 h 8.56502 z"
         id="path1" /><text
         xml:space="preserve"
         style="font-style:normal;font-variant:normal;font-weight:normal;font-stretch:normal;font-size:40px;line-height:1.25;font-family:ro;-inkscape-font-specification:ro;stroke:#808080;stroke-width:2;stroke-dasharray:none;paint-order:markers stroke fill"
         x="198.34663"
         y="191.26538"
         id="text1"><tspan
           sodipodi:role="line"
           id="tspan1"
           x="198.34663"
           y="191.26538"
           style="font-style:normal;font-variant:normal;font-weight:normal;font-stretch:normal;font-family:'Roboto Slab';-inkscape-font-specification:'Roboto Slab';stroke:#808080;stroke-width:2;stroke-dasharray:none;paint-order:markers stroke fill">KaiGE</tspan></text></g></g></svg>
